<?xml version="1.0" standalone="no"?>
<!DOCTYPE svg PUBLIC "-//W3C//DTD SVG 20010904//EN"
 "http://www.w3.org/TR/2001/REC-SVG-20010904/DTD/svg10.dtd">
<svg version="1.0" xmlns="http://www.w3.org/2000/svg"
 width="944.000000pt" height="944.000000pt" viewBox="0 0 944.000000 944.000000"
 preserveAspectRatio="xMidYMid meet">
<metadata>
Created by potrace 1.11, written by Peter Selinger 2001-2013
</metadata>
<g transform="translate(0.000000,944.000000) scale(0.100000,-0.100000)"
fill="#000000" stroke="none">
<path d="M5464 9422 c-116 -23 -222 -84 -307 -176 -50 -54 -113 -185 -127
-264 -43 -241 81 -487 300 -594 l67 -33 -3 -90 c-11 -367 -15 -459 -17 -460
-1 -1 -31 -15 -67 -33 -82 -39 -179 -126 -223 -200 -59 -97 -80 -173 -82 -289
-1 -57 -4 -105 -7 -108 -8 -8 -781 -335 -793 -335 -6 0 -18 13 -27 28 -22 37
-122 134 -184 179 -108 77 -271 137 -408 149 -39 3 -71 7 -72 8 -1 3 -77 414
-85 461 -5 28 -11 60 -14 72 -4 18 3 28 37 49 111 68 211 210 241 343 30 127
4 293 -61 403 -56 96 -160 185 -267 231 -57 25 -170 44 -242 41 -78 -4 -200
-44 -269 -90 -117 -78 -211 -214 -238 -347 -63 -301 140 -604 439 -655 42 -7
44 -11 61 -112 3 -19 12 -66 19 -105 8 -38 17 -86 20 -105 3 -19 8 -42 10 -50
3 -8 7 -31 9 -50 3 -19 9 -55 15 -80 15 -66 16 -64 -51 -100 -174 -92 -299
-223 -378 -394 -57 -124 -78 -218 -80 -357 0 -21 -5 -36 -12 -36 -7 0 -121
-26 -253 -58 -316 -77 -297 -75 -324 -31 -34 54 -134 139 -205 174 -407 198
-862 -140 -792 -587 34 -213 221 -405 434 -445 129 -24 231 -11 348 44 166 80
269 215 308 404 l12 61 74 17 c41 10 84 20 95 22 30 6 357 86 376 91 10 4 22
-8 37 -37 48 -96 143 -208 237 -278 175 -130 391 -186 616 -157 l56 7 21 -48
c11 -26 60 -139 107 -252 48 -113 95 -225 106 -249 l19 -43 -28 -21 c-53 -40
-148 -143 -192 -206 -96 -142 -140 -299 -135 -486 4 -160 39 -280 126 -427
l22 -37 -246 -245 c-135 -135 -248 -246 -251 -246 -3 0 -27 13 -53 28 -45 27
-140 67 -188 79 -103 27 -264 35 -364 18 -22 -4 -42 -6 -43 -6 -9 4 -176 -62
-225 -89 l-58 -33 -290 289 -291 289 18 35 c53 109 62 298 18 415 -71 188
-236 328 -425 360 -200 34 -411 -49 -531 -208 -81 -109 -114 -206 -115 -339 0
-233 147 -439 372 -520 53 -19 84 -23 179 -23 98 1 125 4 187 27 l71 25 290
-288 290 -288 -47 -93 c-63 -125 -86 -229 -86 -385 0 -100 -3 -124 -15 -129
-8 -3 -91 -34 -185 -69 -93 -35 -232 -86 -307 -114 l-137 -51 -47 50 c-71 76
-189 145 -284 166 -55 12 -178 10 -235 -3 -323 -73 -508 -403 -404 -722 35
-106 145 -240 241 -293 187 -103 414 -97 582 15 142 95 242 266 248 424 3 61
5 64 68 86 25 8 126 45 225 82 99 37 221 82 272 100 l92 34 42 -57 c112 -150
289 -271 456 -313 29 -7 53 -15 54 -18 1 -3 2 -159 3 -346 l1 -339 -79 -39
c-60 -28 -97 -56 -151 -110 -113 -115 -165 -244 -160 -402 7 -236 153 -430
380 -506 200 -68 442 -3 580 154 54 61 111 170 129 247 13 56 14 178 2 237
-16 84 -72 188 -137 260 -47 52 -88 81 -173 123 l-71 36 -1 347 c0 241 3 347
10 348 45 3 164 47 234 86 l63 35 380 -380 381 -380 -16 -48 c-61 -189 -21
-391 106 -538 45 -51 157 -136 180 -136 8 0 18 -4 23 -9 19 -18 139 -42 210
-43 239 -2 436 137 526 369 28 74 35 232 14 313 -65 247 -288 420 -537 418
-94 -1 -147 -13 -237 -53 l-62 -28 -370 369 c-203 203 -369 372 -369 377 0 4
11 25 25 47 45 71 86 190 101 295 17 113 -2 320 -35 394 -4 9 -27 55 -51 103
-24 49 -41 90 -39 92 14 16 434 437 462 464 l35 34 51 -26 c131 -67 257 -98
401 -99 255 -1 528 141 671 350 17 23 36 43 43 43 7 0 57 -16 112 -36 54 -19
182 -65 284 -100 102 -36 199 -70 217 -76 l32 -12 -3 -89 c-4 -131 24 -279 70
-368 12 -23 11 -28 -4 -41 -29 -25 -453 -298 -462 -298 -5 0 -36 17 -69 38
-232 151 -546 100 -723 -117 -106 -129 -150 -331 -107 -483 7 -24 13 -45 13
-49 1 -3 16 -35 35 -72 21 -41 59 -93 99 -132 156 -157 381 -204 597 -123 54
20 162 97 205 146 48 55 114 186 128 257 11 52 10 178 -2 230 -7 29 -4 32 86
90 51 32 164 106 251 162 l158 104 52 -42 c64 -51 211 -122 297 -144 123 -31
262 -31 415 0 37 8 155 54 173 68 7 5 14 8 16 6 1 -2 56 -87 120 -189 65 -102
154 -240 197 -308 l80 -123 -40 -60 c-150 -225 -122 -510 69 -700 217 -215
558 -214 774 4 152 152 202 360 135 566 -25 75 -65 138 -133 206 -125 125
-247 171 -428 162 l-107 -6 -34 52 c-46 70 -123 191 -242 377 -55 85 -109 170
-121 188 l-22 32 49 75 c97 146 141 304 135 480 -2 55 -7 120 -11 145 l-7 45
50 22 c47 22 147 69 446 212 106 51 130 59 140 48 21 -25 101 -84 142 -105
125 -63 306 -77 427 -34 342 123 481 519 289 822 -125 198 -373 295 -602 235
-96 -25 -177 -72 -250 -145 -108 -108 -163 -247 -162 -407 1 -64 -1 -73 -19
-78 -12 -4 -100 -45 -197 -92 -98 -47 -228 -110 -291 -139 l-114 -54 -59 65
c-32 35 -88 86 -124 112 -46 33 -63 52 -58 63 8 20 30 80 193 544 78 220 142
401 144 402 1 1 34 4 72 7 200 15 375 133 459 310 85 179 74 370 -30 535 -19
29 -34 55 -34 58 0 4 123 202 205 329 41 64 91 142 249 391 l127 202 51 -14
c125 -33 300 -1 415 76 71 48 89 63 134 120 245 304 95 766 -285 875 -69 20
-210 23 -276 5 -251 -67 -425 -292 -419 -545 3 -114 35 -218 90 -297 11 -14
19 -32 19 -40 0 -11 -130 -219 -483 -773 -24 -38 -56 -88 -70 -111 l-25 -41
-64 11 c-155 29 -305 -8 -443 -109 -22 -15 -21 -16 -200 140 -248 216 -323
282 -420 365 -60 52 -112 97 -115 100 -3 3 -52 46 -109 95 -58 50 -122 106
-143 125 l-39 35 20 46 c125 281 -16 621 -303 730 l-56 22 6 196 c3 108 7 227
8 264 l2 68 90 44 c166 81 271 215 307 391 77 383 -265 724 -649 646z m-263
-2567 c48 -43 141 -90 216 -110 55 -15 214 -22 231 -11 5 3 24 8 43 11 18 3
53 15 76 25 l43 19 48 -42 c27 -23 77 -67 111 -97 35 -30 73 -63 85 -73 12
-10 43 -37 70 -60 27 -23 59 -51 70 -62 12 -11 68 -60 126 -110 58 -49 112
-96 121 -105 8 -8 40 -35 69 -60 29 -25 58 -50 64 -55 6 -6 63 -55 126 -110
63 -55 127 -111 143 -125 26 -22 28 -28 22 -72 -27 -197 38 -383 179 -509 l29
-26 -18 -54 c-10 -30 -30 -88 -45 -129 -15 -41 -46 -127 -68 -190 -84 -240
-175 -497 -194 -547 l-19 -52 -97 1 c-53 1 -119 -2 -147 -6 -119 -16 -285 -86
-380 -159 -72 -56 -175 -168 -198 -214 -5 -13 -15 -23 -21 -23 -10 0 -121 38
-381 131 -60 22 -145 51 -187 66 l-77 25 3 101 c7 278 -105 522 -319 692 -54
43 -66 51 -153 95 -57 29 -175 65 -242 75 -57 8 -212 5 -253 -4 -26 -6 -39 -5
-45 2 -4 7 -62 140 -129 297 l-122 285 27 20 c151 111 276 303 318 490 16 72
21 215 11 329 -2 29 -1 29 298 157 165 70 307 130 315 133 8 3 56 23 105 45
50 22 94 40 99 40 5 1 26 -15 47 -34z"/>
</g>
</svg>
