<?xml version="1.0" standalone="no"?>
<!DOCTYPE svg PUBLIC "-//W3C//DTD SVG 20010904//EN"
 "http://www.w3.org/TR/2001/REC-SVG-20010904/DTD/svg10.dtd">
<svg version="1.0" xmlns="http://www.w3.org/2000/svg"
 width="987.000000pt" height="987.000000pt" viewBox="0 0 987.000000 987.000000"
 preserveAspectRatio="xMidYMid meet">
<metadata>
Created by potrace 1.16, written by Peter Selinger 2001-2019
</metadata>
<g transform="translate(0.000000,987.000000) scale(0.100000,-0.100000)"
fill="currentColor" stroke="none">
<path d="M4600 9863 c-19 -1 -87 -8 -150 -14 -1113 -103 -2196 -614 -2995
-1414 -142 -142 -390 -423 -424 -481 l-16 -26 1959 -1955 1959 -1955 1960
1960 1960 1960 -16 26 c-98 148 -510 579 -727 758 -314 260 -611 454 -960 629
-576 288 -1167 453 -1825 509 -109 9 -640 12 -725 3z m840 -667 c948 -119
1746 -495 2450 -1154 l75 -71 -1512 -1513 -1513 -1513 -1512 1513 -1513 1513
90 86 c660 629 1536 1037 2440 1137 216 24 211 24 550 21 213 -3 362 -9 445
-19z"/>
<path d="M651 7396 c-95 -163 -234 -453 -310 -646 -184 -468 -288 -915 -331
-1425 -13 -155 -13 -615 0 -770 35 -404 107 -770 227 -1139 372 -1148 1134
-2101 2183 -2729 153 -92 521 -272 695 -340 863 -339 1792 -430 2703 -266 850
153 1673 544 2332 1109 136 116 404 385 523 524 698 813 1106 1801 1188 2875
15 203 7 729 -15 911 -72 602 -223 1113 -480 1631 -88 176 -192 359 -204 359
-4 0 -186 -179 -405 -398 l-397 -397 60 -79 c178 -232 294 -500 346 -799 21
-122 20 -459 -1 -582 -66 -380 -224 -690 -490 -964 -365 -375 -846 -569 -1365
-548 -387 16 -722 138 -1034 375 l-58 45 -437 -437 -436 -436 -436 436 -436
436 -84 -62 c-241 -179 -494 -286 -809 -341 -100 -18 -450 -18 -550 0 -422 74
-759 252 -1041 549 -128 134 -216 261 -299 427 -81 163 -118 267 -154 428 -88
391 -39 803 139 1173 47 97 151 264 217 346 l21 27 -398 406 c-219 223 -399
405 -400 405 -2 0 -31 -47 -64 -104z"/>
<path d="M7087 5432 c-493 -493 -897 -902 -897 -907 0 -22 177 -128 290 -175
364 -151 805 -121 1145 78 266 156 470 407 569 703 48 144 61 232 61 414 0
227 -31 372 -120 558 -37 80 -130 227 -142 227 -5 0 -412 -404 -906 -898z"/>
<path d="M1823 6233 c-86 -131 -146 -282 -184 -458 -21 -95 -18 -391 5 -495
54 -250 164 -456 338 -636 188 -194 415 -317 686 -371 131 -26 365 -23 502 6
172 37 366 123 501 224 l24 17 -900 900 c-495 495 -903 900 -908 900 -4 0 -33
-39 -64 -87z"/>
</g>
</svg>
