<svg xmlns="http://www.w3.org/2000/svg" width="1000" height="1000" viewBox="0 0 1000 1000" fill="none">
  <path d="M1.72203 248.399C1.72203 111.246 113.037 0.0625 250.352 0.0625C387.666 0.0625 498.981 111.247 498.981 248.399V750.726C498.981 887.879 387.666 999.063 250.352 999.063C113.037 999.063 1.72203 887.878 1.72203 750.726V248.399Z" fill="black"/>
  <path d="M500.697 248.399C500.697 111.246 612.012 0.0625 749.326 0.0625C886.641 0.0625 997.956 111.247 997.956 248.399V750.726C997.956 887.879 886.641 999.063 749.326 999.063C612.012 999.063 500.697 887.878 500.697 750.726V248.399Z" fill="black"/>
  <path d="M73.1607 424.588C-23.9351 327.607 -23.9349 170.369 73.1609 73.3875C170.257 -23.5941 327.68 -23.5941 424.776 73.3875L926.517 574.538C1023.61 671.519 1023.61 828.757 926.517 925.739C829.421 1022.72 671.998 1022.72 574.902 925.739L73.1607 424.588Z" fill="black"/>
</svg>